<svg xmlns="http://www.w3.org/2000/svg" viewBox="0 0 2048 1152" role="img" aria-label="China EV night editorial visual">
  <defs>
    <linearGradient id="bg" x1="0" y1="0" x2="1" y2="1">
      <stop offset="0" stop-color="#07172d"/>
      <stop offset=".58" stop-color="#0a1f3d"/>
      <stop offset="1" stop-color="#f1f3f5"/>
    </linearGradient>
    <radialGradient id="glow" cx=".72" cy=".2" r=".68">
      <stop offset="0" stop-color="#dbe7f4" stop-opacity=".65"/>
      <stop offset=".42" stop-color="#7895b8" stop-opacity=".18"/>
      <stop offset="1" stop-color="#0a1f3d" stop-opacity="0"/>
    </radialGradient>
    <filter id="soft" x="-20%" y="-20%" width="140%" height="140%">
      <feGaussianBlur stdDeviation="14"/>
    </filter>
  </defs>
  <rect width="2048" height="1152" fill="url(#bg)"/>
  <rect width="2048" height="1152" fill="url(#glow)"/>
  <g opacity=".32" stroke="#e4e8ec" stroke-width="1">
    <path d="M0 760 C360 690 520 840 820 742 S1320 692 2048 790" fill="none"/>
    <path d="M0 850 C360 780 520 930 820 832 S1320 782 2048 880" fill="none"/>
    <path d="M0 940 C360 870 520 1020 820 922 S1320 872 2048 970" fill="none"/>
  </g>
  <g opacity=".18" stroke="#f1f3f5" stroke-width="2">
    <path d="M210 0v1152M475 0v1152M740 0v1152M1005 0v1152M1270 0v1152M1535 0v1152M1800 0v1152"/>
  </g>
  <g filter="url(#soft)" opacity=".45">
    <ellipse cx="1320" cy="765" rx="520" ry="72" fill="#dbe7f4"/>
    <ellipse cx="920" cy="860" rx="360" ry="54" fill="#87a3c3"/>
  </g>
  <g fill="#07172d" stroke="#dbe7f4" stroke-width="3">
    <path d="M1040 645c95-75 265-95 420-70 116 19 210 74 274 142 14 15 6 40-14 43l-760 100c-48 6-88-38-74-85 21-70 75-107 154-130z"/>
    <circle cx="1135" cy="805" r="52"/>
    <circle cx="1650" cy="735" r="52"/>
  </g>
  <g fill="#0a1f3d" stroke="#f1f3f5" stroke-width="3" opacity=".92">
    <path d="M330 745c70-54 198-68 318-50 78 12 142 48 190 98 11 12 5 31-11 34l-575 76c-37 5-68-29-57-65 16-51 57-76 135-93z"/>
    <circle cx="405" cy="868" r="41"/>
    <circle cx="780" cy="818" r="41"/>
  </g>
  <g opacity=".62" fill="#f1f3f5">
    <circle cx="1610" cy="214" r="3"/><circle cx="1678" cy="186" r="2"/><circle cx="1735" cy="260" r="2"/>
    <circle cx="1510" cy="310" r="2"/><circle cx="1845" cy="348" r="3"/><circle cx="1335" cy="176" r="2"/>
  </g>
</svg>
