<svg xmlns="http://www.w3.org/2000/svg" viewBox="0 0 2048 1152" role="img" aria-label="EV lineup silhouettes">
  <defs>
    <linearGradient id="paper" x1="0" y1="0" x2="1" y2="1">
      <stop offset="0" stop-color="#f1f3f5"/>
      <stop offset="1" stop-color="#e4e8ec"/>
    </linearGradient>
    <linearGradient id="ink" x1="0" y1="0" x2="1" y2="0">
      <stop offset="0" stop-color="#0a1f3d"/>
      <stop offset="1" stop-color="#2f4b70"/>
    </linearGradient>
  </defs>
  <rect width="2048" height="1152" fill="url(#paper)"/>
  <g stroke="#0a1f3d" stroke-opacity=".18" stroke-width="1">
    <path d="M208 160h1632M208 310h1632M208 460h1632M208 610h1632M208 760h1632M208 910h1632"/>
    <path d="M280 100v952M560 100v952M840 100v952M1120 100v952M1400 100v952M1680 100v952"/>
  </g>
  <g transform="translate(0 120)" fill="url(#ink)" stroke="#07172d" stroke-width="4">
    <g transform="translate(210 520) scale(.82)">
      <path d="M80 120c58-62 134-92 255-92h136c82 0 150 28 208 86l62 62c23 23 8 62-25 66H74c-46 0-68-56-36-89z"/>
      <circle cx="164" cy="252" r="48"/><circle cx="638" cy="252" r="48"/>
    </g>
    <g transform="translate(520 470) scale(.92)">
      <path d="M70 168c70-98 160-140 300-140h180c112 0 202 45 278 137l44 54c19 24 2 60-29 60H78c-49 0-76-57-45-95z"/>
      <circle cx="184" cy="292" r="52"/><circle cx="732" cy="292" r="52"/>
    </g>
    <g transform="translate(905 440)">
      <path d="M70 190c58-110 160-162 320-162h210c148 0 246 54 322 160l48 68c17 25-1 58-31 58H78c-49 0-76-57-45-95z"/>
      <circle cx="205" cy="328" r="56"/><circle cx="820" cy="328" r="56"/>
    </g>
    <g transform="translate(1330 493) scale(.9)">
      <path d="M80 140c60-78 144-112 264-112h160c94 0 172 36 235 108l64 73c21 24 4 62-28 62H80c-46 0-69-55-38-89z"/>
      <circle cx="188" cy="283" r="50"/><circle cx="688" cy="283" r="50"/>
    </g>
  </g>
  <g opacity=".35" fill="#0a1f3d">
    <rect x="260" y="972" width="1528" height="8"/><rect x="340" y="1004" width="1368" height="4"/>
  </g>
</svg>
