<svg xmlns="http://www.w3.org/2000/svg" viewBox="0 0 2048 1152" role="img" aria-label="Sedan battlefield editorial visual">
  <defs>
    <linearGradient id="bg" x1="0" y1="0" x2="1" y2="1">
      <stop offset="0" stop-color="#f1f3f5"/><stop offset="1" stop-color="#dbe3ec"/>
    </linearGradient>
  </defs>
  <rect width="2048" height="1152" fill="url(#bg)"/>
  <g opacity=".28" stroke="#0a1f3d" stroke-width="2" fill="none">
    <path d="M-80 910 720 1200M310 820l800 290M700 730l800 290M1090 640l800 290M1480 550l800 290"/>
    <path d="M-80 620 720 910M310 530l800 290M700 440l800 290M1090 350l800 290M1480 260l800 290"/>
  </g>
  <g opacity=".22" stroke="#0a1f3d" stroke-width="1" fill="none">
    <ellipse cx="630" cy="560" rx="450" ry="150" transform="rotate(-13 630 560)"/>
    <ellipse cx="1100" cy="548" rx="520" ry="170" transform="rotate(-13 1100 548)"/>
    <ellipse cx="1480" cy="600" rx="450" ry="150" transform="rotate(-13 1480 600)"/>
  </g>
  <g fill="#0a1f3d" stroke="#07172d" stroke-width="4">
    <g transform="translate(295 528) rotate(-13)">
      <path d="M70 124c66-74 164-102 324-92 112 7 212 54 288 120l48 41c22 19 9 55-20 58L70 319c-45 5-72-47-43-82z"/>
      <circle cx="165" cy="319" r="47"/><circle cx="628" cy="268" r="47"/>
    </g>
    <g transform="translate(760 440) rotate(-13)">
      <path d="M70 124c66-74 164-102 324-92 112 7 212 54 288 120l48 41c22 19 9 55-20 58L70 319c-45 5-72-47-43-82z"/>
      <circle cx="165" cy="319" r="47"/><circle cx="628" cy="268" r="47"/>
    </g>
    <g transform="translate(1190 520) rotate(-13)">
      <path d="M70 124c66-74 164-102 324-92 112 7 212 54 288 120l48 41c22 19 9 55-20 58L70 319c-45 5-72-47-43-82z"/>
      <circle cx="165" cy="319" r="47"/><circle cx="628" cy="268" r="47"/>
    </g>
  </g>
  <g opacity=".5" fill="#0a1f3d">
    <circle cx="506" cy="267" r="5"/><circle cx="1220" cy="250" r="5"/><circle cx="1575" cy="370" r="5"/>
    <circle cx="820" cy="870" r="4"/><circle cx="1700" cy="870" r="4"/>
  </g>
</svg>
