<svg xmlns="http://www.w3.org/2000/svg" viewBox="0 0 2048 1152" role="img" aria-label="SUV battlefield contour visual">
  <rect width="2048" height="1152" fill="#f1f3f5"/>
  <g fill="none" stroke="#0a1f3d" stroke-width="2" opacity=".22">
    <path d="M130 825c180-135 390-110 510 6s370 142 520 28 380-150 650 12"/>
    <path d="M115 735c210-150 410-118 565 18s336 126 492 8 374-130 748 2"/>
    <path d="M102 645c232-170 450-120 620 26s310 110 472-10 366-108 814-6"/>
    <path d="M94 555c260-186 500-112 662 42s292 88 462-34 370-82 802 4"/>
    <path d="M78 465c300-190 560-96 720 58s270 68 448-48 370-56 802 12"/>
  </g>
  <g opacity=".22" stroke="#0a1f3d" stroke-width="1">
    <path d="M240 170h1560M240 982h1560M250 170v812M1790 170v812" fill="none"/>
  </g>
  <g fill="#0a1f3d" stroke="#07172d" stroke-width="4">
    <g transform="translate(260 584)">
      <path d="M72 150c62-92 144-128 274-128h205c116 0 204 48 272 142l53 73c18 25 0 60-31 60H78c-49 0-76-57-45-95z"/>
      <circle cx="188" cy="313" r="54"/><circle cx="742" cy="313" r="54"/>
    </g>
    <g transform="translate(900 450) scale(1.08)">
      <path d="M72 150c62-92 144-128 274-128h205c116 0 204 48 272 142l53 73c18 25 0 60-31 60H78c-49 0-76-57-45-95z"/>
      <circle cx="188" cy="313" r="54"/><circle cx="742" cy="313" r="54"/>
    </g>
    <g transform="translate(1190 705) scale(.72)">
      <path d="M72 150c62-92 144-128 274-128h205c116 0 204 48 272 142l53 73c18 25 0 60-31 60H78c-49 0-76-57-45-95z"/>
      <circle cx="188" cy="313" r="54"/><circle cx="742" cy="313" r="54"/>
    </g>
  </g>
  <g opacity=".36" fill="#0a1f3d">
    <rect x="1460" y="245" width="150" height="8"/><rect x="1460" y="275" width="260" height="5"/>
    <rect x="1460" y="303" width="210" height="5"/><rect x="1460" y="331" width="305" height="5"/>
  </g>
</svg>
