<svg xmlns="http://www.w3.org/2000/svg" viewBox="0 0 2048 1152" role="img" aria-label="Benchmark reflection visual">
  <defs>
    <linearGradient id="bg" x1="0" y1="0" x2="1" y2="1">
      <stop offset="0" stop-color="#f1f3f5"/>
      <stop offset=".6" stop-color="#e4e8ec"/>
      <stop offset="1" stop-color="#0a1f3d"/>
    </linearGradient>
    <filter id="blur"><feGaussianBlur stdDeviation="6"/></filter>
  </defs>
  <rect width="2048" height="1152" fill="url(#bg)"/>
  <g opacity=".18" fill="#0a1f3d" filter="url(#blur)">
    <path d="M180 435c70-75 170-105 320-94 105 7 196 52 266 120l44 43c22 21 8 58-22 61l-660 70c-43 5-70-47-42-81z"/>
    <path d="M1040 300c80-92 200-130 380-118 128 9 238 62 324 142l54 50c25 24 9 68-27 72l-785 85c-52 6-83-56-50-97z"/>
    <path d="M1250 690c70-75 170-105 320-94 105 7 196 52 266 120l44 43c22 21 8 58-22 61l-660 70c-43 5-70-47-42-81z"/>
    <path d="M470 720c54-58 132-82 250-74 82 6 153 41 208 94l34 33c17 16 6 45-17 47l-516 55c-34 4-55-37-33-63z"/>
  </g>
  <g fill="#0a1f3d" stroke="#07172d" stroke-width="4">
    <path d="M770 520c76-86 188-122 356-111 120 8 224 58 304 134l50 48c24 23 9 64-25 68l-735 79c-49 5-78-53-47-91z"/>
    <circle cx="895" cy="748" r="56"/><circle cx="1340" cy="700" r="56"/>
  </g>
  <g opacity=".45" stroke="#0a1f3d" stroke-width="2" fill="none">
    <path d="M420 255h1210M420 900h1210M420 255v645M1630 255v645"/>
    <path d="M1024 255v645M420 578h1210"/>
  </g>
  <g opacity=".5" fill="#f1f3f5">
    <circle cx="760" cy="320" r="4"/><circle cx="1420" cy="330" r="5"/><circle cx="1510" cy="795" r="4"/>
  </g>
</svg>
